<svg width="1em" height="1em" viewBox="0 0 24 25" fill="none" xmlns="http://www.w3.org/2000/svg">
<path fill-rule="evenodd" clip-rule="evenodd" d="M1 10C1 6.41017 3.91015 3.5 7.5 3.5C9.24701 3.5 10.8329 4.18982 12 5.30968C13.1671 4.18982 14.753 3.5 16.5 3.5C20.0898 3.5 23 6.41017 23 10C23 13.1341 21.164 15.9994 19.0231 18.1615C16.8724 20.3335 14.2421 21.9718 12.3154 22.6121C12.1106 22.6801 11.8894 22.6801 11.6846 22.6121C9.75788 21.9718 7.12761 20.3335 4.97692 18.1615C2.83596 15.9994 1 13.1341 1 10ZM7.5 5.5C5.01472 5.5 3 7.51473 3 10C3 12.3659 4.41404 14.7506 6.39808 16.7543C8.24453 18.619 10.4368 20.0021 12 20.6011C13.5632 20.0021 15.7555 18.619 17.6019 16.7543C19.586 14.7506 21 12.3659 21 10C21 7.51473 18.9853 5.5 16.5 5.5C14.9789 5.5 13.6337 6.25379 12.8176 7.41266C12.6303 7.67865 12.3253 7.8369 12 7.8369C11.6747 7.8369 11.3697 7.67865 11.1824 7.41266C10.3663 6.25379 9.02112 5.5 7.5 5.5Z" fill="currentColor"/>
</svg>
